<svg width="15" height="15" viewBox="0 0 15 15" fill="none" xmlns="http://www.w3.org/2000/svg">
<g id="bi:journal-bookmark" clip-path="url(#clip0_248_634)">
<g id="Group">
<path id="Vector" fill-rule="evenodd" clip-rule="evenodd" d="M5.625 7.5V0.9375H6.5625V6.67219L8.19656 5.69063C8.26936 5.647 8.35263 5.62396 8.4375 5.62396C8.52237 5.62396 8.60564 5.647 8.67844 5.69063L10.3125 6.67219V0.9375H11.25V7.5C11.25 7.58294 11.228 7.66439 11.1863 7.73606C11.1445 7.80772 11.0845 7.86702 11.0124 7.90791C10.9402 7.94881 10.8585 7.96982 10.7756 7.96881C10.6926 7.96781 10.6115 7.94482 10.5403 7.90219L8.4375 6.64031L6.33469 7.90313C6.26348 7.9458 6.18221 7.96879 6.0992 7.96976C6.01619 7.97072 5.93441 7.94962 5.86223 7.90862C5.79005 7.86762 5.73005 7.80818 5.68836 7.73639C5.64668 7.66459 5.62482 7.58302 5.625 7.5Z" fill="#337CCF"/>
<path id="Vector_2" d="M2.8125 0H12.1875C12.6848 0 13.1617 0.197544 13.5133 0.549175C13.865 0.900806 14.0625 1.37772 14.0625 1.875V13.125C14.0625 13.6223 13.865 14.0992 13.5133 14.4508C13.1617 14.8025 12.6848 15 12.1875 15H2.8125C2.31522 15 1.83831 14.8025 1.48667 14.4508C1.13504 14.0992 0.9375 13.6223 0.9375 13.125V12.1875H1.875V13.125C1.875 13.3736 1.97377 13.6121 2.14959 13.7879C2.3254 13.9637 2.56386 14.0625 2.8125 14.0625H12.1875C12.4361 14.0625 12.6746 13.9637 12.8504 13.7879C13.0262 13.6121 13.125 13.3736 13.125 13.125V1.875C13.125 1.62636 13.0262 1.3879 12.8504 1.21209C12.6746 1.03627 12.4361 0.9375 12.1875 0.9375H2.8125C2.56386 0.9375 2.3254 1.03627 2.14959 1.21209C1.97377 1.3879 1.875 1.62636 1.875 1.875V2.8125H0.9375V1.875C0.9375 1.37772 1.13504 0.900806 1.48667 0.549175C1.83831 0.197544 2.31522 0 2.8125 0Z" fill="#337CCF"/>
<path id="Vector_3" d="M0.9375 4.6875V4.21875C0.9375 4.09443 0.986886 3.9752 1.07479 3.88729C1.1627 3.79939 1.28193 3.75 1.40625 3.75C1.53057 3.75 1.6498 3.79939 1.73771 3.88729C1.82561 3.9752 1.875 4.09443 1.875 4.21875V4.6875H2.34375C2.46807 4.6875 2.5873 4.73689 2.67521 4.82479C2.76311 4.9127 2.8125 5.03193 2.8125 5.15625C2.8125 5.28057 2.76311 5.3998 2.67521 5.48771C2.5873 5.57561 2.46807 5.625 2.34375 5.625H0.46875C0.34443 5.625 0.225201 5.57561 0.137294 5.48771C0.049386 5.3998 0 5.28057 0 5.15625C0 5.03193 0.049386 4.9127 0.137294 4.82479C0.225201 4.73689 0.34443 4.6875 0.46875 4.6875H0.9375ZM0.9375 7.5V7.03125C0.9375 6.90693 0.986886 6.7877 1.07479 6.69979C1.1627 6.61189 1.28193 6.5625 1.40625 6.5625C1.53057 6.5625 1.6498 6.61189 1.73771 6.69979C1.82561 6.7877 1.875 6.90693 1.875 7.03125V7.5H2.34375C2.46807 7.5 2.5873 7.54939 2.67521 7.63729C2.76311 7.7252 2.8125 7.84443 2.8125 7.96875C2.8125 8.09307 2.76311 8.2123 2.67521 8.30021C2.5873 8.38811 2.46807 8.4375 2.34375 8.4375H0.46875C0.34443 8.4375 0.225201 8.38811 0.137294 8.30021C0.049386 8.2123 0 8.09307 0 7.96875C0 7.84443 0.049386 7.7252 0.137294 7.63729C0.225201 7.54939 0.34443 7.5 0.46875 7.5H0.9375ZM0.9375 10.3125V9.84375C0.9375 9.71943 0.986886 9.6002 1.07479 9.51229C1.1627 9.42439 1.28193 9.375 1.40625 9.375C1.53057 9.375 1.6498 9.42439 1.73771 9.51229C1.82561 9.6002 1.875 9.71943 1.875 9.84375V10.3125H2.34375C2.46807 10.3125 2.5873 10.3619 2.67521 10.4498C2.76311 10.5377 2.8125 10.6569 2.8125 10.7812C2.8125 10.9056 2.76311 11.0248 2.67521 11.1127C2.5873 11.2006 2.46807 11.25 2.34375 11.25H0.46875C0.34443 11.25 0.225201 11.2006 0.137294 11.1127C0.049386 11.0248 0 10.9056 0 10.7812C0 10.6569 0.049386 10.5377 0.137294 10.4498C0.225201 10.3619 0.34443 10.3125 0.46875 10.3125H0.9375Z" fill="#337CCF"/>
</g>
</g>
<defs>
<clipPath id="clip0_248_634">
<rect width="15" height="15" fill="white"/>
</clipPath>
</defs>
</svg>
