<svg width="42" height="30" viewBox="0 0 42 30" fill="none" xmlns="http://www.w3.org/2000/svg">
<g id="logos:youtube-icon" clip-path="url(#clip0_248_1018)">
<path id="Vector" d="M41.0724 4.67917C40.8315 3.77476 40.3616 2.95024 39.7095 2.28771C39.0573 1.62519 38.2457 1.14777 37.3554 0.903C34.0962 0 20.9787 0 20.9787 0C20.9787 0 7.86059 0.0273333 4.60133 0.930333C3.71104 1.17512 2.89942 1.65256 2.24727 2.31512C1.59512 2.97768 1.12521 3.80223 0.884328 4.70667C-0.101523 10.5897 -0.483953 19.554 0.911399 25.2017C1.1523 26.1061 1.62223 26.9306 2.27437 27.5931C2.92652 28.2556 3.73813 28.7331 4.6284 28.9778C7.88767 29.8808 21.0054 29.8808 21.0054 29.8808C21.0054 29.8808 34.1231 29.8808 37.3822 28.9778C38.2725 28.7331 39.0841 28.2557 39.7363 27.5932C40.3885 26.9306 40.8584 26.1061 41.0993 25.2017C42.1392 19.3103 42.4596 10.3515 41.0724 4.67917Z" fill="#FF0000"/>
<path id="Vector_2" d="M16.8032 21.3433L27.6852 14.9403L16.8032 8.53732V21.3433Z" fill="white"/>
</g>
<defs>
<clipPath id="clip0_248_1018">
<rect width="42" height="30" fill="white"/>
</clipPath>
</defs>
</svg>
