<svg width="18" height="18" viewBox="0 0 18 18" fill="none" xmlns="http://www.w3.org/2000/svg">
<g clip-path="url(#clip0_170_11)">
<path d="M15.3168 1.39062H1.85827C1.18255 1.39062 0.634766 1.93841 0.634766 2.61413V16.0727C0.634766 16.7484 1.18255 17.2962 1.85827 17.2962H15.3168C15.9925 17.2962 16.5403 16.7484 16.5403 16.0727V2.61413C16.5403 1.93841 15.9925 1.39062 15.3168 1.39062Z" stroke="#082E5B" stroke-width="1.4" stroke-linecap="round" stroke-linejoin="round"/>
<path d="M0.634766 5.67288H16.5403M4.91702 5.67288L6.75228 1.39062M10.4228 5.67288L12.258 1.39062M6.74004 13.6991V9.01304C6.74346 8.94103 6.76451 8.87096 6.80133 8.80898C6.83815 8.747 6.88962 8.695 6.95122 8.65755C7.01283 8.62011 7.08269 8.59835 7.15466 8.59421C7.22664 8.59006 7.29853 8.60364 7.36403 8.63376L11.4261 10.9706C11.4918 11.0112 11.5461 11.0679 11.5838 11.1353C11.6215 11.2028 11.6413 11.2788 11.6413 11.3561C11.6413 11.4333 11.6215 11.5093 11.5838 11.5768C11.5461 11.6442 11.4918 11.7009 11.4261 11.7415L7.36403 14.0906C7.29739 14.118 7.22519 14.1291 7.15341 14.1229C7.08162 14.1168 7.01234 14.0936 6.95132 14.0553C6.89029 14.017 6.83929 13.9647 6.80254 13.9028C6.76579 13.8408 6.74437 13.771 6.74004 13.6991Z" stroke="#082E5B" stroke-width="1.4" stroke-linecap="round" stroke-linejoin="round"/>
</g>
<defs>
<clipPath id="clip0_170_11">
<rect width="17.129" height="17.129" fill="white" transform="translate(0.0229492 0.778809)"/>
</clipPath>
</defs>
</svg>
