<svg width="23" height="23" viewBox="0 0 23 23" fill="none" xmlns="http://www.w3.org/2000/svg">
<path d="M17.4953 12.8953L19.2433 11.4693L20.9913 10.0433C21.7273 9.44531 21.5587 8.90864 20.608 8.86264L18.1853 8.72464L14.352 8.50998L13.7233 6.89998L12.9107 4.78398L12.098 2.66798C11.7607 1.77864 11.1933 1.77864 10.856 2.66798L9.21533 6.88464L8.58666 8.49464L4.75333 8.70931L2.33066 8.84731C1.37999 8.89331 1.21133 9.42998 1.94733 10.028L3.69533 11.454L5.44333 12.88L6.77733 13.9686L5.90333 17.2653L5.18266 20.01C4.93733 20.93 5.39733 21.252 6.19466 20.746L9.99733 18.2926L11.4387 17.3573L12.88 18.2926L14.7813 19.5193L16.6827 20.746C17.48 21.252 17.94 20.93 17.6947 20.01L16.974 17.2653L16.1 13.9686L17.434 12.88L17.4953 12.8953Z" fill="#FFC700"/>
</svg>
