<svg width="21" height="22" viewBox="0 0 21 22" fill="none" xmlns="http://www.w3.org/2000/svg">
<g clip-path="url(#clip0_170_7)">
<path d="M13.2464 11.6278C14.4337 12.4338 15.2657 13.5258 15.2657 14.9817V17.5817H18.7323V14.9817C18.7323 13.0925 15.6383 11.9745 13.2464 11.6278ZM11.7991 10.6485C13.7144 10.6485 15.2657 9.09721 15.2657 7.18192C15.2657 5.26663 13.7144 3.71533 11.7991 3.71533C11.3918 3.71533 11.0104 3.802 10.6464 3.92333C11.3922 4.84563 11.7991 5.99583 11.7991 7.18192C11.7991 8.36801 11.3922 9.51822 10.6464 10.4405C11.0104 10.5618 11.3918 10.6485 11.7991 10.6485ZM6.5992 10.6485C8.51449 10.6485 10.0658 9.09721 10.0658 7.18192C10.0658 5.26663 8.51449 3.71533 6.5992 3.71533C4.6839 3.71533 3.13261 5.26663 3.13261 7.18192C3.13261 9.09721 4.6839 10.6485 6.5992 10.6485ZM6.5992 5.44863C7.55251 5.44863 8.33249 6.22861 8.33249 7.18192C8.33249 8.13523 7.55251 8.91522 6.5992 8.91522C5.64588 8.91522 4.8659 8.13523 4.8659 7.18192C4.8659 6.22861 5.64588 5.44863 6.5992 5.44863ZM6.5992 11.5152C4.28525 11.5152 -0.333984 12.6765 -0.333984 14.9817V17.5817H13.5324V14.9817C13.5324 12.6765 8.91314 11.5152 6.5992 11.5152ZM11.7991 15.8484H1.39931V14.9904C1.57264 14.3664 4.25925 13.2485 6.5992 13.2485C8.93914 13.2485 11.6258 14.3664 11.7991 14.9817V15.8484Z" fill="#082E5B"/>
</g>
<defs>
<clipPath id="clip0_170_7">
<rect width="20.7995" height="20.7995" fill="white" transform="translate(0.0229492 0.248779)"/>
</clipPath>
</defs>
</svg>
