<svg width="36" height="26" viewBox="0 0 36 26" fill="none" xmlns="http://www.w3.org/2000/svg">
<path d="M8.4498 16.25C8.44996 17.2436 8.77535 18.2098 9.37626 19.0011C9.97717 19.7923 10.8206 20.3651 11.7776 20.632C12.7347 20.8989 13.7528 20.8452 14.6765 20.4791C15.6001 20.1129 16.3785 19.4545 16.8928 18.6044C17.4071 17.7543 17.629 16.7592 17.5246 15.7711C17.4202 14.783 16.9952 13.8563 16.3146 13.1324C15.634 12.4086 14.7352 11.9274 13.7554 11.7624C12.7756 11.5974 11.7687 11.7577 10.8886 12.2187C11.1928 11.0903 11.6218 10.1452 12.1353 9.3912C13.1623 7.8806 14.5078 7.15 15.9248 7.15C16.1834 7.15 16.4314 7.04727 16.6142 6.86443C16.7971 6.68158 16.8998 6.43358 16.8998 6.175C16.8998 5.91641 16.7971 5.66842 16.6142 5.48557C16.4314 5.30272 16.1834 5.2 15.9248 5.2C13.7525 5.2 11.8467 6.3479 10.522 8.294C9.209 10.2258 8.4498 12.9519 8.4498 16.25Z" fill="#004BAD"/>
<path d="M18.4498 16.25C18.45 17.2436 18.7753 18.2098 19.3763 19.0011C19.9772 19.7923 20.8206 20.3651 21.7776 20.632C22.7347 20.8989 23.7528 20.8452 24.6765 20.4791C25.6001 20.1129 26.3785 19.4545 26.8928 18.6044C27.4071 17.7543 27.629 16.7592 27.5246 15.7711C27.4202 14.783 26.9952 13.8563 26.3146 13.1324C25.634 12.4086 24.7352 11.9274 23.7554 11.7624C22.7756 11.5974 21.7687 11.7577 20.8886 12.2187C21.1928 11.0903 21.6218 10.1452 22.1353 9.3912C23.1623 7.8806 24.5078 7.15 25.9248 7.15C26.1834 7.15 26.4314 7.04727 26.6142 6.86443C26.7971 6.68158 26.8998 6.43358 26.8998 6.175C26.8998 5.91641 26.7971 5.66842 26.6142 5.48557C26.4314 5.30272 26.1834 5.2 25.9248 5.2C23.7525 5.2 21.8467 6.3479 20.522 8.294C19.209 10.2258 18.4498 12.9519 18.4498 16.25Z" fill="#004BAD"/>
</svg>
