<svg width="20" height="20" viewBox="0 0 20 20" fill="none" xmlns="http://www.w3.org/2000/svg">
<g clip-path="url(#clip0_170_9)">
<path d="M17.3815 7.73423C17.2885 7.44925 17.1139 7.19788 16.8792 7.01135C16.6446 6.82482 16.3603 6.71136 16.0617 6.68508L11.7029 6.30809L9.99768 2.24453C9.88038 1.96819 9.68434 1.73248 9.434 1.56679C9.18366 1.4011 8.8901 1.31274 8.58989 1.31274C8.28969 1.31274 7.99612 1.4011 7.74578 1.56679C7.49544 1.73248 7.2994 1.96819 7.1821 2.24453L5.47455 6.30809L1.11582 6.68508C0.815597 6.70994 0.529399 6.82291 0.29314 7.00982C0.0568802 7.19673 -0.118917 7.44925 -0.212195 7.7357C-0.305472 8.02214 -0.312075 8.32976 -0.231175 8.61995C-0.150274 8.91014 0.0145259 9.16997 0.242548 9.36684L3.55518 12.2574L2.56108 16.558C2.49291 16.8508 2.51257 17.1573 2.6176 17.439C2.72264 17.7207 2.90839 17.9653 3.15164 18.142C3.39488 18.3187 3.68483 18.4199 3.98523 18.4327C4.28564 18.4456 4.58316 18.3696 4.84062 18.2143L8.5876 15.9386L12.3346 18.2143C12.592 18.3694 12.8895 18.4451 13.1897 18.4322C13.49 18.4192 13.7798 18.318 14.0229 18.1413C14.266 17.9646 14.4516 17.7202 14.5566 17.4386C14.6617 17.157 14.6814 16.8507 14.6133 16.558L13.6193 12.2574L16.9319 9.36684C17.1593 9.16925 17.3233 8.9089 17.4033 8.61845C17.4833 8.328 17.4757 8.02039 17.3815 7.73423ZM12.2772 10.9933C12.0675 11.1758 11.9115 11.412 11.8259 11.6764C11.7404 11.9409 11.7285 12.2237 11.7916 12.4944L12.6626 16.2659L9.37905 14.2716C9.14059 14.1264 8.86679 14.0495 8.5876 14.0495C8.30841 14.0495 8.0346 14.1264 7.79614 14.2716L4.51257 16.2659L5.38355 12.4944C5.44667 12.2237 5.43481 11.9409 5.34926 11.6764C5.2637 11.412 5.10769 11.1758 4.89797 10.9933L1.98527 8.45227L5.81942 8.1204C6.09707 8.09663 6.36287 7.99715 6.5879 7.83279C6.81294 7.66843 6.98857 7.44549 7.09569 7.18824L8.5876 3.6332L10.0795 7.18824C10.1866 7.44549 10.3623 7.66843 10.5873 7.83279C10.8123 7.99715 11.0781 8.09663 11.3558 8.1204L15.1899 8.45227L12.2772 10.9933Z" fill="#082E5B"/>
</g>
<defs>
<clipPath id="clip0_170_9">
<rect width="19.576" height="19.576" fill="white" transform="translate(0.0229492 0.389404)"/>
</clipPath>
</defs>
</svg>
